<svg id="e2a4990e-0333-4105-9390-aaedbca4cab4" data-name="layer-1" xmlns="http://www.w3.org/2000/svg" xmlns:xlink="http://www.w3.org/1999/xlink" viewBox="0 0 3000 2000"><defs><linearGradient id="bbde3544-65dc-4805-a632-28bbfbb514a1" x1="3103.51" y1="-317.38" x2="-830.67" y2="2914.79" gradientUnits="userSpaceOnUse"><stop offset="0" stop-color="#8fd4ff"/><stop offset="1" stop-color="#1355bf"/></linearGradient><linearGradient id="ae37019e-7064-4b2b-b859-74fa401dfb9d" x1="2176.41" y1="438.12" x2="941.77" y2="1840.2" xlink:href="#bbde3544-65dc-4805-a632-28bbfbb514a1"/><linearGradient id="e5e34adc-2cea-4d84-b041-fbb091bf1bdd" x1="5169.63" y1="743.83" x2="4630.58" y2="1383" gradientTransform="matrix(-1, 0, 0, 1, 5799.12, 0)" gradientUnits="userSpaceOnUse"><stop offset="0" stop-color="#ffc34e"/><stop offset="1" stop-color="#fb8627"/></linearGradient><linearGradient id="b01ed4aa-02ef-40f5-a67e-e69f7a72ff92" x1="5064.35" y1="655.04" x2="4525.3" y2="1294.22" xlink:href="#e5e34adc-2cea-4d84-b041-fbb091bf1bdd"/><linearGradient id="b815abba-d74f-4ea8-b259-791818d46706" x1="5189.59" y1="539.01" x2="4819.26" y2="1201.5" xlink:href="#e5e34adc-2cea-4d84-b041-fbb091bf1bdd"/><linearGradient id="f27939ad-3245-4fbe-938b-d488fc220648" x1="5157.65" y1="696.41" x2="4582.32" y2="1378.6" xlink:href="#e5e34adc-2cea-4d84-b041-fbb091bf1bdd"/><clipPath id="be3703cc-b095-42e7-9c62-18100d519b13"><path d="M1877.19,1027H1391.4a23.81,23.81,0,0,1-23.66-21.11l-53-465.47a23.81,23.81,0,0,1,23.65-26.5h485.8a23.8,23.8,0,0,1,23.65,21.11l53,465.47A23.8,23.8,0,0,1,1877.19,1027Z" style="fill:none"/></clipPath></defs><rect width="3000" height="2000" style="fill:url(#bbde3544-65dc-4805-a632-28bbfbb514a1)"/><path d="M727.73,1705.17s-656.75-330.3-514-513.46c71.71-92,240.31,32.74,240.31,32.74s-132.32-182.53-220.6-239.33S210.76,761.7,198.33,709.87,61.88,586,141.35,554.3s153.72,9.75,171.19,69.84,8.39,77,65.92,94.43S484,818,492.76,888.38s83.51,154.16,83.51,154.16S433.52,729,415.1,629.87s-68.38-431,6.82-417.91S671.66,347.34,722,439s147.88,401.9,147.88,401.9S801.6,255.63,850.25,255.63,981.34,535.2,981.34,535.2s21.28-242.09,122.81-301.41c81.12-47.39,97.32,32,123.3,62.61,90,106,90,400.23,90,400.23s370.47-360.23,531-380.23c157.24-19.59,223.5-79,239.63-104.82s106.3-76.71,133.27-38.17,16.38,154.88-30.72,184-50.35,60.18-53.1,125.47-20.65,135.59-44.45,166S2043.74,813,2043.74,813s151.42-278.64,312.59-319,149.07-107.8,217.05-168.7,159.68-117.66,142.21-47.79-56.77,92.67-34.93,142.41,13.1,164-13.11,192-109.72,169-105.08,201.13-51.72,119.32-51.72,119.32,177.19-106.13,242.7-53.89-237.71,360.76-237.71,360.76,322-141.8,365.71-68.62-322.9,329.27-322.9,329.27,266.22-87.41,192,52.57-368,163.73-368,163.73Z" style="fill:#2d5ca8"/><path d="M2024.48,1702.81H1342.31a26.77,26.77,0,0,1-26.61-23.92L1185.43,461.28a26.76,26.76,0,0,1,26.61-29.6h682.17a26.76,26.76,0,0,1,26.61,23.91L2051.09,1673.2A26.77,26.77,0,0,1,2024.48,1702.81Z" style="fill:#0e3a82"/><path d="M1982.82,1623.74H1412.07A23.24,23.24,0,0,1,1389,1603L1266.59,505a23.23,23.23,0,0,1,23.11-25.71h570.75a23.23,23.23,0,0,1,23.11,20.76L2005.93,1598A23.24,23.24,0,0,1,1982.82,1623.74Z" style="fill:url(#ae37019e-7064-4b2b-b859-74fa401dfb9d)"/><path d="M1528.83,1145.43a52.67,52.67,0,1,1-52.67-52.66A52.66,52.66,0,0,1,1528.83,1145.43Z" style="fill:#f37168"/><path d="M1475.65,1126.92s-18.39-16.22-31.41-.64c-17.87,21.39,31.41,48.6,31.41,48.6s50.16-28.08,32.61-49.72C1495,1108.8,1475.65,1126.92,1475.65,1126.92Z" style="fill:#fff"/><path d="M1817.23,1145.43a57.87,57.87,0,1,1-57.87-57.87A57.87,57.87,0,0,1,1817.23,1145.43Z" style="fill:#0e3a82"/><path d="M1758.07,1107.31c7.5-1,14,17.6,13.45,23.55s14-.78,21,4.4,4.92,32.08,0,33.89-24.74,2.07-31.13-1.29-10.7-2.73-10.7-2.73l-3.29-28.15a25.06,25.06,0,0,0,8.38-5.09C1760.14,1128,1758.07,1107.31,1758.07,1107.31Zm-33.38,66c1.81,1.56,22.25,6.47,23.29-3.88s-4.14-32.34-4.14-32.34-14.23-.72-19.15,1.8C1722.79,1139.84,1722.88,1171.74,1724.69,1173.29Z" style="fill:#fff"/><rect x="1540.55" y="1126.51" width="93.04" height="24.47" rx="12" style="fill:#2d5ca8"/><rect x="1540.55" y="1158.23" width="93.04" height="24.47" rx="12" style="fill:#2d5ca8"/><rect x="1837.54" y="1126.51" width="93.04" height="24.47" rx="12" style="fill:#2d5ca8"/><rect x="1837.54" y="1158.23" width="93.04" height="24.47" rx="12" style="fill:#2d5ca8"/><path d="M1914,1327H1467a10,10,0,0,1,0-20h447a10,10,0,0,1,0,20Z" style="fill:#2d5ca8"/><path d="M1920.58,1364.74h-447a10,10,0,0,1,0-20h447a10,10,0,0,1,0,20Z" style="fill:#2d5ca8"/><path d="M1852.58,1405.71h-447a10,10,0,0,1,0-20h447a10,10,0,0,1,0,20Z" style="fill:#2d5ca8"/><path d="M1346.21,1702.81h-24.06a17.87,17.87,0,0,1-17.76-15.92L1169,453.37a19.55,19.55,0,0,1,19.44-21.69H1209a19.56,19.56,0,0,1,19.45,17.42L1364,1683A17.87,17.87,0,0,1,1346.21,1702.81Z" style="fill:#0f2d5c"/><path d="M1817.56,1667.79H1696.07a6.75,6.75,0,1,1,0-13.5h121.49a6.75,6.75,0,0,1,0,13.5Z" style="fill:#0f2d5c"/><circle cx="1678.93" cy="455.74" r="8.67" style="fill:#0f2d5c"/><circle cx="1712.93" cy="455.74" r="8.67" style="fill:#0f2d5c"/><path d="M1624.93,464.41h-93.34a8.67,8.67,0,0,1,0-17.34h93.34a8.67,8.67,0,0,1,0,17.34Z" style="fill:#0f2d5c"/><rect x="789.36" y="1247.34" width="814.9" height="468.8" rx="50.84" style="fill:#0f2d5c"/><rect x="825.28" y="1268" width="743.06" height="427.47" rx="46.36" style="fill:#2a66c6"/><g style="opacity:0.4"><path d="M1186.81,1612.19c-82.81,0-150.19-67.38-150.19-150.19s67.38-150.19,150.19-150.19S1337,1379.19,1337,1462,1269.62,1612.19,1186.81,1612.19Zm0-280.38A130.19,130.19,0,1,0,1317,1462,130.33,130.33,0,0,0,1186.81,1331.81Z" style="fill:#fff"/></g><path d="M1262.6,1445.37a19.2,19.2,0,0,1,0,33.26l-47.27,27.3-47.28,27.29a19.2,19.2,0,0,1-28.81-16.63V1407.41a19.2,19.2,0,0,1,28.81-16.63l47.28,27.29Z" style="fill:#fff;opacity:0.4"/><path d="M906.71,1650.2a4.73,4.73,0,0,1,0,8.18l-11.62,6.71-11.63,6.71a4.73,4.73,0,0,1-7.08-4.09v-26.84a4.72,4.72,0,0,1,7.08-4.09l11.63,6.71Z" style="fill:#fff;opacity:0.4"/><path d="M948.83,1672.44a3.18,3.18,0,0,1-3.16-3.17v-30a3.17,3.17,0,1,1,6.33,0v30A3.18,3.18,0,0,1,948.83,1672.44Z" style="fill:#fff;opacity:0.4"/><path d="M963.08,1672.44a3.18,3.18,0,0,1-3.17-3.17v-30a3.17,3.17,0,1,1,6.33,0v30A3.18,3.18,0,0,1,963.08,1672.44Z" style="fill:#fff;opacity:0.4"/><path d="M1494.58,1650.67v-2.3a5.32,5.32,0,0,1,5.32-5.32h2.75v-6.91h-6.39a8.6,8.6,0,0,0-8.59,8.6v5.93Z" style="fill:#fff;opacity:0.4"/><path d="M1517.05,1657v3.2a5.32,5.32,0,0,1-5.32,5.32H1509v6.92h6.39a8.59,8.59,0,0,0,8.59-8.6V1657Z" style="fill:#fff;opacity:0.4"/><path d="M1509,1643.05h2.75a5.32,5.32,0,0,1,5.32,5.32v2.3H1524v-5.93a8.59,8.59,0,0,0-8.59-8.6H1509Z" style="fill:#fff;opacity:0.4"/><path d="M1502.65,1665.52h-2.75a5.32,5.32,0,0,1-5.32-5.32V1657h-6.91v6.84a8.6,8.6,0,0,0,8.59,8.6h6.39Z" style="fill:#fff;opacity:0.4"/><path d="M1405.33,1650.67H1039.92a12,12,0,0,0-22.84,0h-10.41a3.67,3.67,0,1,0,0,7.33h10.41a12,12,0,0,0,22.84,0h365.41a3.67,3.67,0,1,0,0-7.33Z" style="fill:#fff;opacity:0.4"/><polygon points="1431.5 1642.33 1423.5 1642.33 1423.5 1667.79 1431.5 1667.79 1445.5 1679.62 1445.5 1630.5 1431.5 1642.33" style="fill:#fff;opacity:0.4"/><path d="M1460.36,1654.33l2.36-2.35a2.09,2.09,0,0,0-3-3l-2.35,2.36-2.36-2.36a2.09,2.09,0,0,0-3,3l2.36,2.35-2.36,2.36a2.09,2.09,0,0,0,3,3l2.36-2.36,2.35,2.36a2.09,2.09,0,0,0,3-3Z" style="fill:#fff;opacity:0.4"/><path d="M2416.22,1669.63s60.78,6.75,75.24,0,19.3,8.83-18.32,27.56-54,33.21-66.56,28.39-21.23-29-19.3-43S2416.22,1669.63,2416.22,1669.63Z" style="fill:#0f2d5c"/><path d="M2143.23,1661.91s-2.9,46.3,11.57,55.95,32,22.67-1.92,22.67-43-15.92-53.59-32.32-21.64-29.1-6.55-40.19,15.76-21.54,18.66-21.54S2143.23,1661.91,2143.23,1661.91Z" style="fill:#0f2d5c"/><path d="M2343.84,1227.34c0,272-196.41,460.64-196.41,460.64s-46.67-16.44-48.12-33.8,76.62-141.8,76.62-234.4V1140.53Z" style="fill:#0e3a82"/><path d="M2175.93,1140.53v230.81c35.81,82.57,49.38,160.35,51.07,217.62,54.45-81.49,116.84-208.31,116.84-361.62Z" style="fill:#0f2d5c"/><path d="M2176,1094.23c-4.34,227.16,193.08,596.12,206.63,601.91s51.94-13.46,49.73-27.49c-52.35-332.79-62.48-554.17-62.48-554.17Z" style="fill:#0e3a82"/><path d="M2393,805.61s10.42,9.7,23.44,3.43S2477,769.16,2475.58,761s-23.66-10.16-23.66-10.16S2383.08,805.22,2393,805.61Z" style="fill:#255096"/><path d="M2405.55,804.34c-8.92-1.43,20.42-24.76,30-34.41a147.88,147.88,0,0,1,15.78-14.14s16.4,2,16.4,5.17-47,40.74-47,40.74S2409.57,805,2405.55,804.34Z" style="fill:#ffc34e"/><path d="M2348,846.31s17.13-28.94,25.33-36.65,35.88-22.68,40.08-22.77c7.18-.16-24.65,21.32-24.65,21.32s4.34,28,.48,38.1S2344.84,870,2344.84,870Z" style="fill:#f09959"/><path d="M2316.14,876.69s28-42,34.25-39.07,23.15,39.07,23.15,39.07-49.2,51.12-49.2,41.48S2316.14,876.69,2316.14,876.69Z" style="fill:#91d5ff"/><path d="M2238.78,652s-28.94,102.25-48.23,144.7-28.94,121.54-25.08,260.45-23.15,135.05,17.36,152.41,185.21-11.57,204.5-55.94-12.91-225-60.77-291.33c-47.24-65.45-68.49-88.75-68.49-104.18s18.68-81,18.68-81Z" style="fill:#f09959"/><path d="M2387.33,1153.58c19.3-44.38-12.91-225-60.77-291.33-22-30.48-38.36-51.81-49.56-67.47-22.91-13.67-48.21-26.41-72.47-33.82-4.86,13.69-9.66,26.19-14,35.7-19.3,42.44-28.94,121.54-25.08,260.45s-23.15,135.05,17.36,152.41S2368,1198,2387.33,1153.58Z" style="fill:#b3e2ff"/><path d="M2187.33,742.64c.48-7.94,103.54,32.79,104.18,40.51s6.73,36.51,15.26,52-143.47,102.14-137.88,60S2186.05,763.86,2187.33,742.64Z" style="fill:#b3e2ff"/><path d="M2258.16,759.79a16.81,16.81,0,0,1-.09-1.72c0-15.43,18.68-81,18.68-81l-38-25.08s-6.72,23.74-15.84,53.09C2234.73,740.27,2245.77,752.28,2258.16,759.79Z" style="fill:#e38540"/><path d="M2345.24,702c-8,36.36-33.13,62.22-62.16,55.11-21.29-5.22-54-35-43.52-78.43,8.74-36.19,38.19-60.61,67.37-54.17S2353.27,665.66,2345.24,702Z" style="fill:#f09959"/><path d="M2378.19,938.73c26.35-45.49,29.29-88,47.95-101.25,26.26-18.67,47.82-60.42,38.32-62.06s-48,33.62-48,33.62,10-13.71,7.62-14.86-21.78,12.93-24.79,29.56-40.25,93-71.49,117.51S2351.85,984.23,2378.19,938.73Z" style="fill:#f09959"/><path d="M2207.54,824.11c-46.68,11.62-25.33,152.58,14,236.18s113.31,11.38,141-9.1a92,92,0,0,0,22-22.44c-8.88-49.89-24.1-103.41-42.88-141.07C2297.55,939.39,2276.6,806.91,2207.54,824.11Z" style="fill:#91d5ff"/><path d="M2221.56,814c-58.7,5.88-26.55,152.41,16.37,211.58s104,1.93,123.31-32.16,58.36-92,58.36-129.74c0-7.08-14.47-8.53-31.83-7.24-16.35,1.21-90.22,102.9-90.22,102.9S2272.89,808.84,2221.56,814Z" style="fill:#b3e2ff"/><path d="M2363.17,626.2c35.89,15.11,14.39,62.91-4.54,64.7s-40.8-33.1-52-34.28,2.27,19.51-7.74,24.25-19.34,12.59-22.25,25-10.91,39.45,2.15,40.63,27.25-13,36.12-13.6a48.57,48.57,0,0,1,16.58,2s-22.53,31.15-39.07,32.92-34.59-22.4-47.45-42.84-7.39-34.06-7.39-34.06-13.15,14.8-21.43,13.62,12.42-13,13-47.9,16-53.23,34.89-53.23,16.56-9.63,45.46-8.87C2335.52,595.21,2354.75,622.66,2363.17,626.2Z" style="fill:#0f2d5c"/><path d="M2284.25,697.5c.83,9-3.79,16.8-10.33,17.41s-12.53-6.2-13.37-15.21,3.79-16.81,10.34-17.41S2283.41,688.49,2284.25,697.5Z" style="fill:#f09959"/><path d="M486.1,1668.25c-33.18,37-95.27,31.45-85.31,47.4s54.61,11.86,79.73,10.52c41.78-2.23,30.23-26.17,33.55-34.7S486.1,1668.25,486.1,1668.25Z" style="fill:#0f2d5c"/><path d="M767.68,1145.43s-207.3,159.25-204.46,192S716,1642.94,728.5,1643s40.74-14,45-20.44-8.33-195.43-24-214.71S869.34,1195.2,869.34,1195.2Z" style="fill:#0f2d5c"/><path d="M947.85,1111.3s47.35,108.07,19.76,137.93-124.4,52-157,101C739,1457.91,738.12,1534.28,640,1616.82s-126.33,84.56-126.33,84.56l-32.92-28.85s109.49-148.88,152.15-268.32,155-260.2,155-260.2Z" style="fill:#0e3a82"/><path d="M755,857s-9.88,9.19-22.22,3.25-57.42-37.8-56-45.57S699.16,805,699.16,805,764.41,856.61,755,857Z" style="fill:#255096"/><path d="M743.12,855.78c8.45-1.36-19.36-23.47-28.45-32.62a140.35,140.35,0,0,0-15-13.41s-15.55,1.89-15.55,4.91,44.59,38.62,44.59,38.62S739.31,856.39,743.12,855.78Z" style="fill:#ffc34e"/><path d="M797.7,895.57s-16.23-27.44-24-34.75-34-21.5-38-21.59c-6.81-.15,23.37,20.21,23.37,20.21S755,886,758.6,895.57,800.67,918,800.67,918Z" style="fill:#f09959"/><path d="M827.88,924.36s-26.52-39.78-32.47-37-21.95,37-21.95,37,46.64,48.47,46.64,39.32S827.88,924.36,827.88,924.36Z" style="fill:#fb8627"/><path d="M901.21,711.32s27.44,96.94,45.72,137.17,27.44,115.22,23.78,246.91,21.95,128-16.46,144.48-175.58-11-193.87-53S772.63,973.52,818,910.67c44.78-62,64.92-84.13,64.92-98.76s-17.7-76.81-17.7-76.81Z" style="fill:#f09959"/><path d="M760.38,1186.84C742.1,1144.78,772.63,973.52,818,910.67c20.85-28.89,36.36-49.11,47-64,21.72-13,45.7-25,68.7-32.05,4.61,13,9.16,24.82,13.25,33.83,18.29,40.24,27.44,115.22,23.78,246.91s21.95,128-16.46,144.48S778.67,1228.91,760.38,1186.84Z" style="fill:url(#e5e34adc-2cea-4d84-b041-fbb091bf1bdd)"/><path d="M950,797.28c-.45-7.52-98.15,31.09-98.76,38.41s-6.37,34.6-14.46,49.31,136,96.83,130.71,56.84S951.2,817.4,950,797.28Z" style="fill:url(#b01ed4aa-02ef-40f5-a67e-e69f7a72ff92)"/><path d="M882.84,813.55c0-.56.08-1.1.08-1.64,0-14.63-17.7-76.81-17.7-76.81l36-23.78s6.37,22.51,15,50.33C905.05,795,894.59,806.42,882.84,813.55Z" style="fill:#e38540"/><path d="M810.64,758.62c6.65,30.13,27.46,51.56,51.51,45.67,17.64-4.32,44.76-29,36.07-65-7.25-30-31.65-50.23-55.83-44.89S804,728.49,810.64,758.62Z" style="fill:#f09959"/><path d="M769.05,983.18c-25-43.13-27.76-83.41-45.45-96-24.89-17.7-45.34-57.27-36.32-58.83s45.5,31.87,45.5,31.87-9.5-13-7.23-14.08,20.65,12.25,23.5,28,38.16,88.2,67.78,111.41S794,1026.3,769.05,983.18Z" style="fill:#f09959"/><path d="M930.83,874.51c44.25,11,24,144.65-13.3,223.9s-107.41,10.79-133.62-8.63a86.9,86.9,0,0,1-20.83-21.27c8.42-47.3,22.85-98,40.66-133.73C845.5,983.8,865.36,858.21,930.83,874.51Z" style="fill:url(#b815abba-d74f-4ea8-b259-791818d46706)"/><path d="M917.53,864.92c55.65,5.58,25.18,144.49-15.51,200.57s-98.61,1.83-116.9-30.48S729.8,947.76,729.8,912c0-6.71,13.72-8.08,30.18-6.86,15.5,1.14,85.52,97.54,85.52,97.54S868.88,860,917.53,864.92Z" style="fill:url(#f27939ad-3245-4fbe-938b-d488fc220648)"/><path d="M728.5,1609c2.51,59.72-65.75,108.06-37.31,112.32s50.83-15,63.81-29.51,27.07-18.88,23.28-35.37-4-51.29-8-62.66S728.5,1609,728.5,1609Z" style="fill:#0f2d5c"/><path d="M832.81,665.09c-58.08,4-50.67,94-50.67,94s47.9,1.38,62.19-2.76S873.16,741,873.16,741s8.78,34.1,32.79,36l24,1.9s15.83-64.73,3.31-93.91C907.31,624.46,855.46,654.76,832.81,665.09Z" style="fill:#0f2d5c"/><path d="M896.17,752.25c-3.44,8.85-11.58,14-18.17,11.38s-9.16-11.81-5.72-20.66,11.57-13.94,18.17-11.38S899.61,743.41,896.17,752.25Z" style="fill:#f09959"/><path d="M924.86,732.7s13.93,48.1,33.27,50.56,143,9.62,111.37,139.35c-22,90.19-60.93,105.26-21.49,138.4,32.87,27.62,71.69-7,71.69-7s19,103.07-57.78,101.75-113.44-82-82.16-156.1-30.7-93-33.23-134.61c-2.79-45.83,0-65.73,0-65.73l-21.67-25.83Z" style="fill:#0f2d5c"/><circle cx="644.35" cy="732.7" r="52.66" transform="translate(-329.37 670.22) rotate(-45)" style="fill:#f37168"/><path d="M643.83,714.19s-18.39-16.22-31.41-.64c-17.86,21.39,31.41,48.6,31.41,48.6s50.16-28.08,32.62-49.72C663.18,696.07,643.83,714.19,643.83,714.19Z" style="fill:#fff"/><path d="M2572.07,681.19a52.67,52.67,0,1,1-52.66-52.67A52.66,52.66,0,0,1,2572.07,681.19Z" style="fill:#f37168"/><path d="M2518.89,662.67s-18.39-16.22-31.4-.63c-17.87,21.39,31.4,48.6,31.4,48.6s50.17-28.08,32.62-49.72C2538.24,644.56,2518.89,662.67,2518.89,662.67Z" style="fill:#fff"/><circle cx="2433.83" cy="541.81" r="41.79" style="fill:#f37168"/><path d="M2433.42,527.12s-14.59-12.87-24.92-.5c-14.18,17,24.92,38.56,24.92,38.56s39.8-22.28,25.88-39.45C2448.77,512.75,2433.42,527.12,2433.42,527.12Z" style="fill:#fff"/><circle cx="2529.14" cy="396.22" r="42.93" style="fill:#f37168"/><path d="M2528.72,381.13s-15-13.22-25.6-.51c-14.56,17.43,25.6,39.61,25.6,39.61s40.89-22.89,26.59-40.53C2544.49,366.37,2528.72,381.13,2528.72,381.13Z" style="fill:#fff"/><path d="M2473,263.39A28.43,28.43,0,1,1,2444.59,235,28.43,28.43,0,0,1,2473,263.39Z" style="fill:#f37168"/><path d="M2444.32,253.4s-9.93-8.76-17-.35c-9.64,11.55,17,26.24,17,26.24s27.07-15.16,17.6-26.84C2454.76,243.62,2444.32,253.4,2444.32,253.4Z" style="fill:#fff"/><circle cx="680.17" cy="561.34" r="40.23" transform="translate(-162.38 300.89) rotate(-22.36)" style="fill:#f37168"/><path d="M679.78,547.19s-14-12.39-24-.48c-13.65,16.34,24,37.13,24,37.13s38.32-21.46,24.91-38C694.56,533.35,679.78,547.19,679.78,547.19Z" style="fill:#fff"/><circle cx="563.19" cy="439.09" r="33.98" style="fill:#f37168"/><path d="M562.86,427.15s-11.86-10.47-20.26-.42c-11.53,13.81,20.26,31.36,20.26,31.36s32.37-18.11,21-32.08C575.34,415.45,562.86,427.15,562.86,427.15Z" style="fill:#fff"/><g style="clip-path:url(#be3703cc-b095-42e7-9c62-18100d519b13)"><path d="M1895,1044H1377.09a25.39,25.39,0,0,1-25.22-22.51l-56.54-496.24A25.39,25.39,0,0,1,1320.55,497h517.91a25.38,25.38,0,0,1,25.22,22.51l56.54,496.24A25.38,25.38,0,0,1,1895,1044Z" style="fill:#0e3a82"/><path d="M1661.78,604.59c21.86,43.73,3.76,94.08-39.24,111.87-43.29,17.91-90.63,7.74-112.5-36s-5.62-96.16,36.28-117.11S1639.91,560.87,1661.78,604.59Z" style="fill:#ffc34e"/><path d="M1543.91,721.91c-4.87,0-14.43-1.72-26.57-12.49-9.95-8.83-17.1-22.37-20.12-38.12-3.81-19.86-1.33-42.68,7.37-67.84a2.43,2.43,0,1,1,4.6,1.59c-8.42,24.34-10.83,46.33-7.19,65.34,2.82,14.7,9.42,27.26,18.58,35.39,15.23,13.52,25.44,11.08,25.54,11.06a2.46,2.46,0,0,1,3,1.72,2.42,2.42,0,0,1-1.67,3A13.33,13.33,0,0,1,1543.91,721.91Z" style="fill:#ffc34e"/><path d="M1768.17,782.5s-11-3.87-16.84-27.83c-3-12.34,5-33.67,11.67-40.34C1758.67,702,1742,656,1749.33,656s24,51,24,51,9-47.33,14.67-46.67,0,49.34,0,49.34,20.15,3.39,26.33,21.66-13.12,46.91-13.12,50.91S1799,799,1799,799l-31.67-5Z" style="fill:#e38540"/><path d="M1793,708.06c6.27.8,10.89,5.23,13.59,8.17a12.15,12.15,0,0,1,7.73,12.1c-.27,4.44-11.36,19.49-18.85,25.42-9.15,7.25-13.62.25-11.48-2.08s-4.33-2.34-7-5.34,8.33-24.2,10-30.1S1790,707.68,1793,708.06Z" style="fill:#f09959"/><path d="M1776.58,742c15.42,2.67,27.42,2,26.75-2.33s-15-11.1-19-13.57S1776.58,742,1776.58,742Z" style="fill:#e38540"/><path d="M1776.33,755c8.49,16-1.66,29.33-8.16,27.5S1752.05,766,1750.69,749s-.34-17.32,6-26,24.33-.33,29.33,4.5,15.67,9.17,11,12.17-18,0-22.84-2-4.49,3-6.83,5.33S1770.33,743.67,1776.33,755Z" style="fill:#f09959"/><path d="M1610.77,774.75c55.23,30.25,120.89,178,120.89,178S1748.76,820.64,1764,791c3.91-7.6,35-2.37,40,5.31s16,197.77-9,230.73-86,24.49-86,24.49L1628.93,982Z" style="fill:#a8ceff"/><path d="M1756.36,811.94c-13.31,42.12-30.34,133.06-26,157.73s14,35.33,14,35.33-7.33-61-2.33-95S1756.36,811.94,1756.36,811.94Z" style="fill:#93bbf0"/><path d="M1699.83,1043.57c28.13-2.92,52-5.57,46.17-5.57-13,0-73.33-34.8-68.33-68.67s5.66-101-11-130.67l-5.61-12.37c-18-24.61-31-41-50.29-51.54L1628.93,982Z" style="fill:#93bbf0"/><path d="M1519.28,759.42s-79.17,44.23-97.62,53.64,51.7,285.52,67.3,297.35,153,2,168.6-12.87-12-60.67,1.53-152.27-41.28-170.7-48.32-170.52-53-15.33-53-15.33Z" style="fill:#a8ceff"/><path d="M1489,1110.41c15.6,11.83,113.89,12.1,155.73-.92,4.72-1.47,26.16-10,26.66-18-5-.94-25.09,1.46-33.23-.41-28.3-6.5-43.88-41.55-43.88-41.55s-15.58-5.61-50.44-20.37-20.51-59.46-21.33-79.15-34.44-84.07-97.6-132.87l-5.79,2.6C1414.57,864.56,1474.53,1099.46,1489,1110.41Z" style="fill:#93bbf0"/><path d="M1415.44,818.24c-38.14,121.93-92.2,260.29-83.59,260.29s227.59,8.85,236.2,1.48,6.16-35.67,4.93-39.36-124.5-25.57-124.5-25.57,16.24-31.63,22.39-93.45S1422.67,795.12,1415.44,818.24Z" style="fill:#a8ceff"/><path d="M1548.27,653.47l-30.72,112.26s51.91,81,66.18,73.82-8-65.85-8-73.82S1598,675.51,1598,675.51Z" style="fill:#f09959"/><path d="M1576.82,771.45a30.25,30.25,0,0,1-1.07-5.72c0-8,22.25-90.22,22.25-90.22l-49.73-22-10.17,37.15C1547,729,1563,754.55,1576.82,771.45Z" style="fill:#e38540"/><path d="M1663.21,651.61c5.86,32.55,2,75.79-26.91,86.78s-63.72-10-77.77-47-2-75.79,26.91-86.78S1656.22,612.72,1663.21,651.61Z" style="fill:#f09959"/><path d="M1602.24,700.88s24.69,9.47,38.27,9.3,15.68-1.11,15.68-1.11-9.38,18.81-21.33,17.64C1613,724.55,1604.23,706.1,1602.24,700.88Z" style="fill:#fff"/><path d="M1565.39,669.93c4,11.38.53,23-7.86,26s-18.49-3.82-22.54-15.2-.53-23,7.86-26S1561.33,658.55,1565.39,669.93Z" style="fill:#f09959"/><path d="M1663.55,610.72c-9.84,76.38-102.65,66.54-102.65,66.54s-19.14-25.16-27.75-12,11.95-77.45,65.2-80.3C1615.85,584.06,1663.55,610.72,1663.55,610.72Z" style="fill:#ffc34e"/><ellipse cx="1518.96" cy="578.42" rx="50.27" ry="47.16" style="fill:#ffc34e"/></g><circle cx="1796.98" cy="331.41" r="52.66" transform="translate(29.08 793.49) rotate(-25.1)" style="fill:#f37168"/><path d="M1796.46,312.9s-18.39-16.22-31.4-.63c-17.87,21.39,31.4,48.6,31.4,48.6s50.17-28.09,32.62-49.72C1815.81,294.78,1796.46,312.9,1796.46,312.9Z" style="fill:#fff"/><circle cx="1254.68" cy="332.58" r="80.75" style="fill:#0e3a82"/><path d="M1252.87,279.4c10.47-1.45,19.5,24.55,18.78,32.85s19.49-1.08,29.24,6.14,6.86,44.77,0,47.3-34.53,2.89-43.44-1.81-14.93-3.81-14.93-3.81l-4.59-39.28a35.18,35.18,0,0,0,11.69-7.09C1255.76,308.28,1252.87,279.4,1252.87,279.4Zm-46.57,92.07c2.52,2.16,31,9,32.49-5.42s-5.78-45.13-5.78-45.13-19.84-1-26.71,2.51C1203.65,324.78,1203.77,369.3,1206.3,371.47Z" style="fill:#fff"/><circle cx="1884.06" cy="1516.37" r="74.55" style="fill:#c1c765"/><path d="M1848.5,1555.88c-11-65.87,39.41-67.5,39.41-67.5v-19.51l39.95,40-38.49,38.49V1525s-19.35.81-26.67,11.38S1848.5,1555.88,1848.5,1555.88Z" style="fill:#fff"/><circle cx="789.36" cy="353.3" r="74.55" style="fill:#c1c765"/><path d="M753.8,392.8c-11-65.87,39.41-67.49,39.41-67.49V305.79l39.95,39.95-38.49,38.49V361.9s-19.35.81-26.67,11.38S753.8,392.8,753.8,392.8Z" style="fill:#fff"/><circle cx="2041.79" cy="430.03" r="20" style="fill:#fff"/><circle cx="2041.79" cy="520.03" r="20" style="fill:#fff"/><circle cx="1966.79" cy="476.55" r="20" style="fill:#fff"/><path d="M2041.79,524a4,4,0,0,1-2-.54l-75-43.48a4,4,0,0,1-2-3.4,4,4,0,0,1,1.89-3.46l75-46.52a4,4,0,1,1,4.22,6.79l-69.33,43,69.23,40.13a4,4,0,0,1-2,7.46Z" style="fill:#fff"/><circle cx="1522.98" cy="1311.46" r="10.35" transform="translate(-103.31 2492.39) rotate(-76.72)" style="fill:#fff"/><circle cx="1522.98" cy="1358.03" r="10.35" transform="translate(-148.63 2528.25) rotate(-76.72)" style="fill:#fff"/><path d="M1494.52,1335.53a10.35,10.35,0,1,1-10.34-10.34A10.34,10.34,0,0,1,1494.52,1335.53Z" style="fill:#fff"/><path d="M1523,1362a4.1,4.1,0,0,1-2-.54l-38.8-22.5a4,4,0,0,1-.1-6.86l38.8-24.07a4,4,0,0,1,4.22,6.8L1492,1335.42l33,19.14a4,4,0,0,1-2,7.47Z" style="fill:#fff"/><path d="M176.65,1026.45h31.58a12.07,12.07,0,0,1,12.07,12.07v26a12.08,12.08,0,0,1-12.08,12.08H176.65a12.07,12.07,0,0,1-12.07-12.07v-26A12.07,12.07,0,0,1,176.65,1026.45Z" style="fill:#0e3a82"/><rect x="265.91" y="1026.45" width="55.73" height="50.16" rx="12.08" style="fill:#0e3a82"/><rect x="367.24" y="1026.45" width="55.73" height="50.16" rx="12.08" style="fill:#0e3a82"/><rect x="2786.16" y="502.11" width="55.73" height="50.16" rx="12.08" transform="translate(3341.22 -2286.83) rotate(90)" style="fill:#0e3a82"/><path d="M2798.24,603.44h31.58a12.07,12.07,0,0,1,12.07,12.07v26a12.08,12.08,0,0,1-12.08,12.08h-31.58a12.07,12.07,0,0,1-12.07-12.07v-26A12.08,12.08,0,0,1,2798.24,603.44Z" transform="translate(3442.55 -2185.5) rotate(90)" style="fill:#0e3a82"/><rect x="2786.16" y="704.77" width="55.73" height="50.16" rx="12.08" transform="translate(3543.88 -2084.17) rotate(90)" style="fill:#0e3a82"/></svg>